<?xml version="1.0" encoding="UTF-8"?>
<!DOCTYPE svg PUBLIC "-//W3C//DTD SVG 1.0//EN" "http://www.w3.org/TR/2001/REC-SVG-20010904/DTD/svg10.dtd">
<!-- Creator: CorelDRAW 2017 -->
<svg xmlns="http://www.w3.org/2000/svg" xml:space="preserve" width="1269px" height="1269px" version="1.0" shape-rendering="geometricPrecision" text-rendering="geometricPrecision" image-rendering="optimizeQuality" fill-rule="evenodd" clip-rule="evenodd"
viewBox="0 0 6509 6509"
 xmlns:xlink="http://www.w3.org/1999/xlink">
 <g id="Layer_x0020_1">
  <metadata id="CorelCorpID_0Corel-Layer"/>
  <g id="_2332392973424">
   <circle fill="none" cx="3255" cy="3255" r="3255"/>
   <g>
    <g>
     <path fill="#373435" d="M2024 4642c36,54 59,106 82,163 16,33 25,96 104,96 23,0 56,-7 85,-24 33,-17 59,-43 71,-83l32 -106 77 -38 5 6c-10,40 -13,77 -13,108 0,88 76,122 137,122 36,0 68,-17 68,-50 0,-42 -18,-113 -41,-177 36,-36 71,-72 112,-101l6 4c18,75 28,150 28,200 0,48 -21,102 -39,138 -37,69 -102,124 -181,124 -59,0 -126,-30 -171,-85l-3 0c-43,53 -109,102 -216,102l-33 0c-5,70 -21,120 -44,164 -63,124 -252,212 -428,212 -247,0 -371,-143 -371,-332 0,-117 39,-226 97,-303l48 20c-37,70 -61,137 -61,202 0,177 144,262 311,262 154,0 345,-99 379,-212 -13,-125 -60,-183 -131,-297 22,-38 50,-75 84,-115l6 0z"/>
     <path fill="#373435" d="M2945 4509l90 146c33,54 64,112 64,205l0 119c0,96 -61,199 -161,301 -77,69 -146,98 -210,98 -94,0 -202,-29 -327,-83l14 -37c40,11 86,19 142,19 179,-1 362,-131 446,-292 10,-18 14,-35 14,-47 0,-19 -10,-39 -18,-57 -45,-87 -96,-166 -152,-238 29,-47 58,-91 90,-136l8 2z"/>
     <path fill="#373435" d="M3207 4772c4,93 50,167 209,167 99,0 183,-26 276,-70 16,-8 25,-18 25,-26 0,-59 -44,-135 -119,-206 -73,-66 -169,-124 -260,-163 -30,-13 -41,-27 -41,-40 0,-27 36,-83 65,-123l11 -1c103,54 218,134 304,223 77,83 126,166 126,257 0,67 -21,131 -54,189 -113,57 -234,101 -354,101 -145,0 -244,-69 -244,-229 0,-17 0,-44 7,-79l49 0z"/>
     <path fill="#373435" d="M3967 5085c13,-68 14,-145 14,-216l0 -106c0,-198 -25,-486 -46,-673 36,-39 85,-84 125,-115l11 4c27,235 33,509 33,761 0,66 -2,131 -8,178 -4,60 -39,105 -112,175l-17 -8z"/>
     <path fill="#373435" d="M4289 4695c73,148 139,233 286,233l23 0 0 139 -26 0c-56,0 -97,-10 -129,-35l-5 0c1,13 3,26 3,38 0,51 -17,116 -51,167 -101,151 -210,216 -304,216 -96,0 -213,-37 -318,-85l19 -36c34,14 81,23 146,23 170,0 394,-164 422,-324 -6,-13 -17,-30 -34,-49 -50,-59 -81,-109 -111,-161 26,-50 49,-90 70,-125l9 -1z"/>
     <path fill="#373435" d="M4867 3973c52,33 103,72 153,116 -28,39 -63,75 -106,106 -50,-40 -99,-75 -150,-111 34,-39 68,-77 103,-111zm27 486c-84,0 -153,55 -153,96 0,88 168,115 369,114 -26,-103 -113,-210 -216,-210zm-189 469c110,0 205,-3 278,-21 81,-21 150,-62 150,-90 0,-8 0,-16 -3,-24 -46,4 -98,4 -144,4 -147,0 -260,-33 -305,-117 -11,-22 -19,-48 -19,-77 0,-80 34,-159 95,-213 51,-45 107,-73 165,-73 103,0 185,83 243,214 31,72 53,154 53,258 0,69 -19,127 -62,170 -81,78 -228,108 -455,108l-103 0c-70,0 -89,-44 -89,-73 0,-26 21,-66 89,-66l107 0z"/>
    </g>
    <path fill="#D2D3D5" d="M1838 1405c7,-26 -14,-51 -47,-56 -64,-10 -129,-17 -194,-21 -33,-2 -67,17 -75,42 -17,48 -33,96 -50,145 -9,24 13,46 47,48 68,5 136,13 203,24 35,5 68,-10 75,-35 14,-49 27,-98 41,-147z"/>
    <path fill="#D2D3D5" d="M2196 1496c5,-25 -17,-55 -49,-65 -64,-20 -128,-37 -192,-51 -33,-8 -65,8 -72,33 -13,49 -26,98 -40,148 -7,25 16,51 50,59 67,15 134,33 201,53 34,10 66,-1 71,-27 11,-50 21,-100 31,-150z"/>
    <path fill="#D2D3D5" d="M2549 1642c4,-26 -19,-60 -51,-75 -63,-29 -126,-56 -190,-80 -32,-13 -62,-1 -67,25 -10,50 -20,100 -30,150 -5,25 19,56 53,68 66,25 132,52 198,82 34,16 64,8 67,-18 7,-51 14,-101 20,-152z"/>
    <path fill="#D2D3D5" d="M2896 1842c1,-26 -22,-64 -54,-85 -61,-39 -123,-76 -186,-109 -31,-18 -60,-10 -63,16 -6,51 -12,101 -19,152 -3,26 21,60 55,78 65,34 130,71 195,111 32,20 60,16 62,-10 3,-51 7,-102 10,-153z"/>
    <path fill="#D2D3D5" d="M1762 1678c7,-25 -16,-51 -50,-56 -68,-11 -136,-19 -204,-24 -35,-3 -70,16 -79,41 -16,48 -33,96 -49,145 -9,24 13,46 50,49 71,6 142,15 213,27 36,6 71,-9 78,-34 13,-49 27,-98 41,-148z"/>
    <path fill="#D2D3D5" d="M1685 1952c7,-25 -16,-51 -53,-57 -71,-12 -142,-21 -214,-27 -36,-3 -73,15 -81,40 -17,48 -33,96 -50,144 -8,25 15,47 53,51 74,7 149,17 223,30 38,6 74,-8 81,-33 14,-49 28,-99 41,-148z"/>
    <path fill="#D2D3D5" d="M2082 2053c5,-25 -20,-56 -56,-66 -71,-22 -142,-40 -213,-57 -36,-8 -71,7 -78,32 -13,49 -26,99 -40,148 -7,25 19,52 56,60 75,17 149,37 223,59 37,11 72,0 77,-26 11,-50 21,-100 31,-150z"/>
    <path fill="#D2D3D5" d="M2475 2206c3,-26 -23,-61 -59,-76 -70,-31 -140,-59 -210,-84 -36,-13 -69,-2 -75,24 -9,50 -19,100 -29,150 -5,25 21,56 59,70 74,26 147,54 220,85 37,16 70,8 73,-18 7,-50 14,-101 21,-151z"/>
    <path fill="#D2D3D5" d="M1609 2226c7,-25 -18,-52 -56,-58 -75,-13 -150,-23 -224,-30 -38,-4 -76,14 -84,39 -17,48 -34,96 -50,144 -9,25 16,48 56,52 77,8 155,19 233,33 39,7 77,-7 84,-32 14,-50 27,-99 41,-148z"/>
    <path fill="#D2D3D5" d="M1533 2500c7,-25 -20,-52 -60,-59 -78,-14 -156,-25 -234,-33 -39,-5 -78,13 -87,38 -16,48 -33,96 -50,144 -8,25 18,48 59,53 81,9 162,21 243,36 41,7 81,-6 88,-32 13,-49 27,-98 41,-147z"/>
    <path fill="#D2D3D5" d="M3916 1664c-3,-26 -31,-34 -63,-16 -62,33 -124,70 -186,109 -31,21 -55,59 -53,85 3,51 6,102 9,153 2,26 30,30 63,10 64,-40 129,-77 195,-111 33,-18 57,-52 54,-78 -6,-51 -12,-101 -19,-152z"/>
    <path fill="#D2D3D5" d="M4269 1512c-5,-26 -36,-38 -68,-25 -63,24 -126,51 -189,80 -32,15 -55,49 -52,75 7,51 13,101 20,152 4,26 33,34 67,18 66,-30 132,-57 199,-82 34,-12 57,-43 52,-68 -10,-50 -19,-100 -29,-150z"/>
    <path fill="#D2D3D5" d="M4626 1413c-7,-25 -39,-41 -71,-33 -65,14 -129,31 -192,51 -33,10 -55,40 -50,65 10,50 21,100 31,150 5,26 37,37 71,27 67,-20 134,-38 201,-53 35,-8 57,-34 50,-59 -13,-50 -27,-99 -40,-148z"/>
    <path fill="#D2D3D5" d="M3951 1946c-3,-26 -33,-33 -66,-16 -66,34 -132,71 -196,111 -33,20 -59,58 -57,85 3,50 7,101 10,152 2,26 31,30 65,10 68,-40 136,-77 205,-112 35,-17 61,-52 58,-78 -6,-51 -12,-101 -19,-152z"/>
    <path fill="#D2D3D5" d="M5080 1639c-8,-25 -44,-44 -78,-41 -68,5 -137,13 -204,24 -35,5 -57,31 -50,56 13,50 27,99 41,148 7,25 42,40 78,34 71,-12 142,-21 213,-27 36,-3 58,-25 50,-49 -17,-49 -33,-97 -50,-145z"/>
    <path fill="#D2D3D5" d="M3986 2228c-3,-26 -34,-33 -70,-15 -69,34 -138,72 -206,111 -35,21 -61,59 -60,85 4,51 7,102 10,153 2,26 33,30 69,10 71,-41 143,-78 215,-113 37,-18 64,-53 61,-79 -6,-50 -12,-101 -19,-152z"/>
    <path fill="#D2D3D5" d="M5172 1908c-8,-25 -45,-43 -81,-40 -71,6 -143,15 -214,27 -36,6 -60,32 -53,57 14,49 27,99 41,148 7,25 43,39 81,33 75,-13 149,-23 223,-30 38,-4 62,-26 53,-51 -16,-48 -33,-96 -50,-144z"/>
    <path fill="#D2D3D5" d="M4021 2510c-3,-25 -36,-33 -73,-15 -73,35 -145,73 -216,113 -37,20 -65,59 -63,85 3,51 6,102 10,153 1,26 33,30 71,9 75,-40 150,-78 226,-114 38,-18 67,-53 64,-79 -6,-50 -13,-101 -19,-152z"/>
    <path fill="#D2D3D5" d="M5265 2177c-9,-25 -46,-43 -84,-39 -75,7 -150,17 -224,30 -38,6 -64,33 -57,58 14,49 28,98 41,148 7,25 45,39 85,32 77,-14 155,-25 233,-33 39,-4 64,-27 56,-52 -17,-48 -34,-96 -50,-144z"/>
    <path fill="#D2D3D5" d="M4056 2793c-3,-26 -37,-33 -76,-15 -76,35 -152,73 -227,113 -38,21 -67,60 -66,86 4,51 7,102 10,152 2,27 35,30 75,10 78,-41 156,-79 236,-115 40,-18 70,-54 67,-79 -6,-51 -13,-102 -19,-152z"/>
    <path fill="#D2D3D5" d="M4487 2628c-5,-26 -41,-36 -81,-23 -77,27 -155,56 -232,88 -39,16 -68,50 -64,76 6,51 13,102 20,152 3,26 39,33 80,17 80,-32 160,-62 241,-89 41,-14 70,-45 65,-71 -9,-50 -19,-100 -29,-150z"/>
    <path fill="#D2D3D5" d="M4922 2511c-7,-25 -44,-39 -84,-30 -78,18 -156,39 -234,61 -40,12 -68,43 -63,68 10,50 21,100 31,150 5,26 43,36 84,25 81,-24 162,-45 243,-64 42,-9 70,-37 63,-62 -13,-49 -27,-99 -40,-148z"/>
    <path fill="#36ACE2" d="M1520 1245c-9,25 -43,44 -76,45 -64,0 -129,4 -194,12 -33,3 -52,-12 -42,-37 20,-47 39,-94 59,-141 10,-24 44,-48 75,-52 63,-8 125,-13 187,-15 32,-1 50,19 42,43 -17,49 -34,97 -51,145z"/>
    <path fill="#36ACE2" d="M1915 1131c7,-26 -13,-50 -44,-55 -61,-9 -123,-15 -185,-18 -31,-1 -63,18 -72,43 -17,48 -33,96 -50,145 -8,24 12,45 45,47 64,4 128,11 193,21 32,5 64,-11 71,-36 14,-49 28,-98 42,-147z"/>
    <path fill="#36ACE2" d="M2253 1218c5,-26 -15,-55 -46,-65 -60,-19 -121,-35 -181,-49 -31,-7 -62,9 -69,34 -13,50 -26,99 -40,148 -7,25 14,51 47,58 64,15 127,32 191,51 32,10 62,-2 67,-27 11,-50 21,-100 31,-150z"/>
    <path fill="#36ACE2" d="M2587 1360c3,-26 -19,-60 -49,-74 -59,-29 -119,-55 -178,-79 -31,-12 -60,0 -65,26 -10,50 -19,100 -29,150 -5,25 17,55 49,68 63,24 125,51 188,80 32,15 60,7 64,-19 6,-51 13,-101 20,-152z"/>
    <path fill="#36ACE2" d="M2914 1558c2,-26 -21,-64 -50,-84 -58,-39 -117,-75 -176,-109 -30,-17 -57,-9 -60,17 -6,50 -13,101 -19,152 -3,26 20,60 52,77 61,34 123,71 184,110 31,20 58,16 59,-10 4,-51 7,-102 10,-153z"/>
    <path fill="#36ACE2" d="M3232 1814c0,-26 -23,-69 -51,-94 -56,-50 -113,-97 -171,-141 -29,-22 -54,-18 -55,8 -3,51 -6,102 -9,153 -2,26 22,64 53,87 60,44 120,91 178,141 30,25 54,25 55,-1 0,-51 0,-102 0,-153z"/>
    <path fill="#36ACE2" d="M1476 1369c9,-25 -11,-46 -44,-45 -65,1 -131,5 -196,12 -33,3 -68,27 -78,51 -20,47 -39,94 -59,141 -10,24 10,40 45,37 67,-6 135,-9 203,-8 35,0 70,-19 78,-44 17,-48 34,-96 51,-144z"/>
    <path fill="#36ACE2" d="M3231 2098c0,-26 -24,-69 -54,-94 -59,-50 -119,-97 -180,-141 -31,-22 -57,-18 -59,8 -2,51 -5,102 -8,153 -2,26 23,64 56,87 63,44 126,91 187,141 32,25 57,26 57,-1 1,-51 1,-102 1,-153z"/>
    <path fill="#36ACE2" d="M1382 1637c8,-25 -13,-46 -48,-46 -68,0 -136,2 -204,8 -35,3 -71,26 -81,50 -19,48 -39,95 -58,142 -11,24 10,41 46,38 71,-5 142,-6 213,-5 36,0 72,-18 81,-43 17,-48 34,-96 51,-144z"/>
    <path fill="#36ACE2" d="M2139 1775c5,-26 -18,-56 -52,-66 -68,-21 -135,-39 -203,-54 -34,-8 -68,7 -75,33 -13,49 -26,98 -40,147 -7,26 17,52 53,60 71,16 142,35 212,56 36,11 69,-1 74,-26 11,-50 21,-100 31,-150z"/>
    <path fill="#36ACE2" d="M2512 1924c3,-26 -21,-60 -55,-76 -66,-29 -133,-57 -200,-82 -34,-12 -66,-1 -71,25 -10,50 -20,100 -29,150 -5,25 20,56 55,69 70,25 140,53 210,84 35,15 66,8 70,-18 7,-51 13,-102 20,-152z"/>
    <path fill="#36ACE2" d="M2877 2126c2,-27 -23,-65 -56,-85 -65,-40 -130,-77 -196,-111 -34,-17 -64,-10 -67,16 -6,51 -12,101 -19,152 -3,26 23,61 58,78 69,35 137,72 205,112 35,20 64,16 65,-10 4,-51 7,-102 10,-152z"/>
    <path fill="#36ACE2" d="M3230 2383c0,-27 -25,-69 -57,-95 -62,-49 -125,-96 -189,-141 -32,-22 -60,-18 -62,8 -3,51 -6,101 -8,152 -2,27 25,65 59,88 66,44 132,91 197,141 33,26 59,26 59,0 0,-51 1,-102 1,-153z"/>
    <path fill="#36ACE2" d="M1287 1905c9,-25 -14,-46 -50,-47 -71,-1 -142,0 -213,5 -36,2 -74,25 -84,49 -19,47 -39,94 -58,141 -10,25 12,42 49,40 74,-4 147,-4 221,-2 38,1 76,-17 84,-42 17,-48 34,-96 51,-144z"/>
    <path fill="#36ACE2" d="M2859 2409c2,-26 -25,-64 -60,-85 -68,-39 -137,-77 -206,-111 -35,-18 -67,-11 -70,15 -6,51 -12,102 -19,152 -3,26 24,61 61,79 73,35 144,72 215,113 37,20 67,16 69,-10 3,-51 7,-102 10,-153z"/>
    <path fill="#36ACE2" d="M3229 2667c0,-26 -27,-69 -60,-94 -65,-50 -131,-97 -198,-142 -34,-22 -63,-19 -65,7 -3,51 -6,102 -9,153 -1,26 27,65 62,88 70,44 139,92 207,141 34,26 62,26 62,0 0,-51 0,-102 1,-153z"/>
    <path fill="#36ACE2" d="M1193 2173c8,-25 -15,-47 -53,-48 -75,-2 -149,-2 -222,2 -38,2 -76,24 -87,48 -19,47 -39,94 -58,141 -10,24 13,42 52,41 76,-3 153,-2 230,1 39,2 78,-16 87,-41 17,-48 34,-96 51,-144z"/>
    <path fill="#36ACE2" d="M2025 2332c5,-26 -21,-56 -59,-68 -74,-22 -149,-41 -224,-58 -38,-9 -74,5 -81,31 -13,49 -26,98 -40,147 -7,26 20,53 60,62 77,18 155,38 232,61 40,11 76,1 81,-25 11,-50 21,-100 31,-150z"/>
    <path fill="#36ACE2" d="M2437 2488c4,-26 -24,-61 -61,-77 -74,-31 -148,-59 -222,-85 -37,-14 -72,-3 -77,23 -10,50 -20,100 -29,150 -6,26 22,57 62,70 77,27 154,56 230,88 39,16 74,8 77,-18 7,-50 13,-101 20,-151z"/>
    <path fill="#36ACE2" d="M2840 2693c2,-26 -26,-65 -62,-85 -72,-40 -144,-78 -217,-113 -37,-18 -70,-10 -73,15 -6,51 -12,102 -19,152 -3,26 26,61 65,79 75,36 150,74 225,114 38,21 70,17 72,-9 3,-51 6,-102 9,-153z"/>
    <path fill="#36ACE2" d="M3227 2951c1,-26 -27,-69 -62,-94 -68,-50 -137,-97 -207,-142 -36,-22 -67,-19 -68,7 -3,51 -6,102 -9,153 -1,26 28,65 65,88 73,45 145,92 216,142 36,25 65,25 65,-1 0,-51 0,-102 0,-153z"/>
    <path fill="#36ACE2" d="M1098 2441c9,-24 -16,-47 -56,-49 -77,-3 -154,-4 -231,-2 -39,2 -78,23 -88,47 -20,48 -39,95 -59,142 -10,24 14,42 55,41 79,-1 158,1 238,5 41,2 82,-15 90,-39 17,-49 34,-97 51,-145z"/>
    <path fill="#36ACE2" d="M1968 2610c5,-25 -23,-56 -62,-68 -78,-22 -156,-43 -234,-61 -40,-9 -78,5 -85,30 -13,49 -26,99 -40,148 -7,25 21,53 63,62 81,19 162,40 243,64 42,11 79,1 84,-25 11,-50 21,-100 31,-150z"/>
    <path fill="#36ACE2" d="M2400 2769c3,-26 -26,-60 -65,-76 -77,-32 -154,-61 -232,-88 -39,-13 -76,-3 -81,23 -9,50 -19,100 -29,150 -5,26 24,57 65,71 81,27 162,57 242,89 41,16 76,9 80,-17 6,-50 13,-101 20,-152z"/>
    <path fill="#36ACE2" d="M2822 2977c2,-26 -28,-65 -66,-86 -75,-40 -150,-78 -227,-113 -38,-18 -73,-11 -76,15 -6,50 -12,101 -19,152 -3,25 27,61 68,79 79,36 158,74 235,115 40,20 73,17 75,-10 3,-50 7,-101 10,-152z"/>
    <path fill="#36ACE2" d="M3226 3236c0,-27 -29,-69 -65,-95 -71,-50 -143,-97 -217,-142 -37,-22 -69,-19 -70,7 -3,51 -6,102 -9,153 -1,26 29,65 68,88 76,45 151,92 225,142 38,26 68,26 68,0 0,-51 0,-102 0,-153z"/>
    <path fill="#36ACE2" d="M1004 2709c8,-24 -18,-47 -59,-50 -81,-4 -161,-6 -240,-5 -40,1 -81,22 -91,46 -20,47 -39,94 -59,142 -10,24 16,42 57,42 82,0 165,3 248,8 42,3 84,-14 93,-38 17,-48 34,-97 51,-145z"/>
    <path fill="#36ACE2" d="M1456 2774c7,-25 -21,-53 -62,-60 -82,-15 -163,-27 -244,-36 -41,-5 -82,12 -90,36 -17,49 -33,97 -50,145 -8,25 19,48 62,54 84,10 168,23 253,39 43,8 83,-5 90,-31 14,-49 28,-98 41,-147z"/>
    <path fill="#36ACE2" d="M1911 2889c5,-26 -24,-57 -66,-69 -81,-23 -163,-45 -244,-63 -42,-10 -81,3 -88,29 -13,49 -26,98 -40,147 -7,26 23,54 66,64 85,19 169,41 254,65 43,13 82,3 87,-23 11,-50 21,-100 31,-150z"/>
    <path fill="#36ACE2" d="M2362 3051c4,-26 -27,-61 -68,-77 -80,-32 -161,-62 -242,-89 -41,-14 -79,-4 -84,22 -10,50 -20,100 -30,150 -5,26 26,57 69,72 84,28 168,58 252,90 43,17 80,10 83,-16 7,-51 14,-101 20,-152z"/>
    <path fill="#36ACE2" d="M2804 3260c1,-26 -29,-64 -69,-85 -79,-41 -158,-79 -237,-115 -41,-18 -77,-11 -80,15 -6,50 -12,101 -19,152 -3,26 29,61 71,80 83,36 165,74 246,115 41,21 76,17 78,-9 3,-51 6,-102 10,-153z"/>
    <path fill="#36ACE2" d="M3225 3520c0,-26 -30,-69 -68,-94 -74,-50 -149,-98 -226,-143 -39,-22 -72,-19 -73,7 -3,51 -6,102 -9,153 -2,26 30,65 71,88 79,45 157,92 234,142 39,26 70,26 70,0 1,-51 1,-102 1,-153z"/>
    <path fill="#36ACE2" d="M3563 1740c2,26 -22,64 -53,87 -60,44 -119,91 -178,141 -30,25 -54,25 -54,-1 0,-51 -1,-102 -1,-153 0,-26 23,-69 52,-94 56,-50 113,-97 170,-141 29,-22 54,-18 56,8 3,51 5,102 8,153z"/>
    <path fill="#36ACE2" d="M3881 1382c-3,-26 -30,-34 -60,-17 -59,34 -117,70 -175,109 -30,20 -53,58 -51,84 3,51 7,102 10,153 2,26 28,30 59,10 61,-39 123,-76 185,-110 31,-17 54,-51 51,-77 -6,-51 -12,-102 -19,-152z"/>
    <path fill="#36ACE2" d="M4214 1233c-5,-26 -34,-38 -64,-26 -60,23 -120,50 -179,79 -30,14 -52,48 -48,74 6,51 13,101 20,152 3,26 32,34 64,19 62,-29 125,-56 188,-80 32,-13 54,-43 49,-68 -10,-50 -20,-100 -30,-150z"/>
    <path fill="#36ACE2" d="M4552 1138c-7,-25 -37,-41 -68,-34 -61,14 -122,30 -182,49 -30,10 -51,39 -46,65 10,50 21,100 31,150 5,25 35,37 68,27 63,-19 127,-36 190,-51 33,-7 54,-33 47,-58 -13,-49 -27,-98 -40,-148z"/>
    <path fill="#36ACE2" d="M4895 1101c-8,-25 -41,-44 -72,-43 -62,3 -123,9 -184,18 -32,5 -51,29 -44,55 14,49 27,98 41,147 7,25 39,41 72,36 64,-10 128,-17 193,-21 33,-2 53,-23 44,-47 -17,-49 -33,-97 -50,-145z"/>
    <path fill="#36ACE2" d="M5243 1124c-10,-24 -44,-48 -76,-52 -63,-8 -125,-13 -187,-15 -32,-1 -50,19 -41,43 17,49 33,97 50,145 9,24 43,44 76,45 65,0 130,4 194,12 34,3 52,-12 42,-37 -19,-47 -39,-94 -58,-141z"/>
    <path fill="#36ACE2" d="M3571 1871c-2,-26 -28,-30 -59,-8 -61,44 -120,91 -180,141 -30,25 -54,68 -54,94 1,51 1,102 1,153 0,27 25,26 57,1 62,-50 124,-97 188,-141 32,-23 57,-61 56,-87 -3,-51 -6,-102 -9,-153z"/>
    <path fill="#36ACE2" d="M4988 1370c-9,-25 -43,-44 -76,-42 -65,4 -129,11 -194,21 -33,5 -54,30 -47,56 14,49 28,98 41,147 7,25 41,40 75,35 68,-11 136,-19 203,-24 35,-2 56,-24 47,-48 -16,-49 -33,-97 -49,-145z"/>
    <path fill="#36ACE2" d="M5351 1387c-10,-24 -45,-48 -78,-51 -65,-7 -130,-11 -196,-12 -33,-1 -53,20 -44,45 17,48 34,96 51,144 9,25 44,44 78,44 68,-1 136,2 204,8 34,3 54,-13 44,-37 -20,-47 -39,-94 -59,-141z"/>
    <path fill="#36ACE2" d="M3587 2155c-1,-26 -29,-30 -62,-8 -64,45 -127,92 -189,141 -31,26 -57,68 -56,95 0,51 0,102 0,153 0,26 27,26 60,0 64,-50 130,-97 197,-141 34,-23 60,-61 59,-88 -3,-51 -6,-101 -9,-152z"/>
    <path fill="#36ACE2" d="M4323 1791c-5,-26 -37,-37 -71,-25 -67,25 -133,53 -200,82 -33,16 -58,50 -55,76 7,50 14,101 21,152 3,26 34,33 70,18 69,-31 139,-59 209,-84 36,-13 61,-44 56,-69 -10,-50 -20,-100 -30,-150z"/>
    <path fill="#36ACE2" d="M4700 1688c-7,-26 -40,-41 -75,-33 -67,15 -135,33 -202,54 -34,10 -58,40 -53,66 10,50 21,100 31,150 5,25 38,37 74,26 71,-21 141,-40 212,-56 36,-8 60,-34 53,-60 -13,-49 -27,-98 -40,-147z"/>
    <path fill="#36ACE2" d="M5460 1649c-10,-24 -46,-47 -81,-50 -68,-6 -136,-8 -204,-8 -35,0 -56,21 -47,46 17,48 34,96 51,144 8,25 45,43 81,43 71,-1 141,0 212,5 36,3 57,-14 47,-38 -20,-47 -39,-94 -59,-142z"/>
    <path fill="#36ACE2" d="M3603 2438c-1,-26 -30,-29 -65,-7 -67,45 -133,92 -198,142 -33,25 -59,68 -59,94 0,51 0,102 0,153 0,26 28,26 63,0 67,-49 136,-97 206,-141 36,-23 63,-62 62,-88 -3,-51 -6,-102 -9,-153z"/>
    <path fill="#36ACE2" d="M4378 2070c-5,-26 -38,-37 -74,-24 -71,25 -141,53 -211,84 -36,15 -62,50 -58,76 7,50 13,101 20,151 3,26 36,34 73,18 73,-31 147,-59 220,-85 38,-14 64,-45 59,-70 -10,-50 -19,-100 -29,-150z"/>
    <path fill="#36ACE2" d="M4774 1962c-7,-25 -42,-40 -78,-32 -71,17 -142,35 -213,57 -36,10 -61,41 -56,66 10,50 21,100 31,150 5,26 40,37 78,26 74,-22 148,-42 222,-59 38,-8 63,-35 56,-60 -13,-49 -27,-99 -40,-148z"/>
    <path fill="#36ACE2" d="M5569 1912c-10,-24 -47,-47 -83,-49 -71,-5 -142,-6 -214,-5 -36,1 -58,22 -50,47 17,48 34,96 51,144 9,25 46,43 84,42 74,-2 148,-2 221,2 38,2 60,-15 50,-40 -20,-47 -39,-94 -59,-141z"/>
    <path fill="#36ACE2" d="M3619 2722c-1,-26 -32,-29 -67,-7 -71,45 -140,92 -208,142 -35,25 -62,68 -62,94 0,51 0,102 1,153 0,26 28,26 65,1 70,-50 142,-97 215,-142 37,-23 67,-62 65,-88 -3,-51 -6,-102 -9,-153z"/>
    <path fill="#36ACE2" d="M4432 2349c-5,-26 -39,-37 -77,-23 -74,26 -148,54 -221,85 -38,16 -65,51 -62,77 7,50 14,101 20,151 4,26 38,34 77,18 77,-32 153,-61 231,-88 39,-13 67,-44 62,-70 -10,-50 -20,-100 -30,-150z"/>
    <path fill="#36ACE2" d="M4848 2237c-7,-26 -43,-40 -81,-31 -75,17 -149,36 -224,58 -38,12 -64,42 -59,68 10,50 21,100 31,150 5,26 41,36 81,25 77,-23 155,-43 233,-61 39,-9 66,-36 59,-62 -13,-49 -27,-98 -40,-147z"/>
    <path fill="#36ACE2" d="M5678 2175c-10,-24 -49,-46 -86,-48 -74,-4 -148,-4 -222,-2 -38,1 -62,23 -53,48 17,48 34,96 51,144 8,25 47,43 87,41 77,-3 153,-4 229,-1 39,1 62,-17 52,-41 -19,-47 -39,-94 -58,-141z"/>
    <path fill="#36ACE2" d="M3636 3006c-2,-26 -34,-29 -71,-7 -74,45 -146,92 -217,142 -36,26 -65,68 -65,95 0,51 0,102 1,153 0,26 30,26 67,0 74,-50 149,-97 225,-142 39,-23 70,-62 68,-88 -3,-51 -6,-102 -8,-153z"/>
    <path fill="#36ACE2" d="M5357 2446c-8,-25 -47,-43 -87,-38 -78,8 -156,19 -234,33 -40,7 -66,34 -59,59 13,49 27,98 41,147 7,26 46,39 87,32 81,-15 162,-27 243,-36 41,-5 67,-28 59,-53 -17,-48 -33,-96 -50,-144z"/>
    <path fill="#36ACE2" d="M5787 2437c-10,-24 -50,-45 -89,-47 -76,-2 -154,-1 -231,2 -39,2 -64,25 -56,49 17,48 34,96 51,144 9,25 49,42 90,40 80,-4 160,-6 239,-5 40,1 64,-17 54,-41 -19,-47 -39,-94 -58,-142z"/>
    <path fill="#36ACE2" d="M3652 3290c-2,-26 -35,-29 -74,-7 -77,45 -152,93 -226,143 -38,25 -68,68 -68,94 0,51 1,102 1,153 0,26 31,26 70,0 77,-50 155,-97 235,-142 40,-23 72,-62 70,-88 -2,-51 -5,-102 -8,-153z"/>
    <path fill="#36ACE2" d="M4091 3075c-3,-26 -39,-33 -79,-15 -80,36 -159,74 -237,115 -40,21 -71,59 -69,85 3,51 6,102 10,153 1,26 36,30 77,9 82,-41 164,-79 246,-115 42,-19 74,-54 71,-80 -6,-51 -13,-102 -19,-152z"/>
    <path fill="#36ACE2" d="M4542 2907c-6,-26 -43,-36 -85,-22 -81,27 -162,57 -242,89 -41,16 -71,51 -68,77 7,51 13,101 20,152 3,26 41,33 83,16 84,-32 168,-62 252,-90 43,-15 74,-46 69,-72 -10,-50 -20,-100 -29,-150z"/>
    <path fill="#36ACE2" d="M4996 2786c-7,-26 -46,-39 -87,-29 -82,18 -164,40 -245,63 -42,12 -71,43 -66,69 10,50 21,100 31,150 5,26 44,36 87,23 85,-24 170,-46 254,-65 43,-10 73,-38 66,-64 -13,-49 -27,-98 -40,-147z"/>
    <path fill="#36ACE2" d="M5450 2714c-9,-24 -49,-41 -91,-36 -81,9 -162,21 -243,36 -42,7 -70,35 -63,60 14,49 27,98 41,147 7,25 48,39 91,31 84,-16 168,-29 252,-39 43,-6 71,-29 62,-54 -16,-48 -33,-96 -49,-145z"/>
    <path fill="#36ACE2" d="M5895 2700c-10,-24 -50,-45 -91,-46 -79,-1 -159,1 -240,5 -41,3 -67,26 -58,50 17,48 34,97 51,145 8,24 50,41 92,38 83,-5 166,-8 248,-8 42,0 67,-18 57,-42 -19,-48 -39,-95 -59,-142z"/>
   </g>
  </g>
 </g>
</svg>
